<svg id="Layer_1" data-name="Layer 1" xmlns="http://www.w3.org/2000/svg" viewBox="0 0 16 16"><defs><style>.cls-1{fill:#59b7b8;}.cls-2{fill:#fcbe1e;}.cls-3{fill:#f0824d;}.cls-4{fill:#a3c73a;}</style></defs><path class="cls-1" d="M6,.77A5.47,5.47,0,0,1,6.61.62a6.17,6.17,0,0,1,7,4.7A4.86,4.86,0,0,1,8,11.09,3.43,3.43,0,0,1,5.18,8.93a2.47,2.47,0,0,1,.44-2.79,1.7,1.7,0,0,1,1.31-.59,1.66,1.66,0,0,1,.45.17,1.34,1.34,0,0,1-.28.37A1.77,1.77,0,0,0,6.21,8a2.48,2.48,0,0,0,2,1.91A3.46,3.46,0,0,0,11.82,8.5,4,4,0,0,0,12.17,4,5.53,5.53,0,0,0,7.85,1C7.26.91,6.65.88,6.05.83Z"/><path class="cls-2" d="M8.73,8.3a1.84,1.84,0,0,0,.93-2.52,2.61,2.61,0,0,0-3.1-1.7,4,4,0,0,0-3,5.38,5.39,5.39,0,0,0,4,3.45,17.4,17.4,0,0,0,2.27.29H10v.06a6.91,6.91,0,0,1-.79.16,6.17,6.17,0,0,1-5.64-2.35,4.92,4.92,0,0,1-.83-5.15,4.56,4.56,0,0,1,3.8-3A4.09,4.09,0,0,1,10,3.9a2.93,2.93,0,0,1,1,1.92,1.24,1.24,0,0,1-.35,1.1.19.19,0,0,0-.07.13A1.26,1.26,0,0,1,9.2,8.36,3.78,3.78,0,0,1,8.73,8.3Z"/><path class="cls-3" d="M11.6,11.31a4.63,4.63,0,0,1-1.5.68A5.3,5.3,0,0,1,8,12.1a4.87,4.87,0,0,1-3.32-1.8,3.71,3.71,0,0,1,.14-5,2.73,2.73,0,0,1,2.3-.84,1.92,1.92,0,0,1,.32.09v.08l-.25.09A3.34,3.34,0,0,0,5.21,6,3.11,3.11,0,0,0,5,9.5a4.23,4.23,0,0,0,3.16,2.15,6.15,6.15,0,0,0,3.18-.34l.22-.06Z"/><path class="cls-4" d="M8.53,9.32,9,9.18a3.08,3.08,0,0,0,2.13-1.7,3.13,3.13,0,0,0-.23-3A4.34,4.34,0,0,0,7.51,2.33a5.9,5.9,0,0,0-2.73.35l-.36.11,0-.07c.28-.16.54-.34.83-.47a5.32,5.32,0,0,1,6,1.38A3.79,3.79,0,0,1,12,7.33,3.14,3.14,0,0,1,9.41,9.54a1.13,1.13,0,0,1-.86-.14Z"/><path class="cls-2" d="M9.25,6.26a.58.58,0,0,1-.6.63A.61.61,0,0,1,8,6.29a.62.62,0,0,1,.62-.64A.6.6,0,0,1,9.25,6.26Zm-.32,0A.3.3,0,0,0,8.62,6a.27.27,0,0,0-.28.29.3.3,0,0,0,.59,0Z"/><path class="cls-1" d="M5,15.38a.86.86,0,0,1-.38.07.62.62,0,0,1-.48-.18.65.65,0,0,1-.18-.48.69.69,0,0,1,.2-.51.66.66,0,0,1,.51-.2.82.82,0,0,1,.33.05v.28a.62.62,0,0,0-.31-.08.41.41,0,0,0-.3.12.48.48,0,0,0-.11.32.41.41,0,0,0,.11.31.4.4,0,0,0,.29.11A.72.72,0,0,0,5,15.11Z"/><path class="cls-1" d="M5.75,15.45a.62.62,0,0,1-.46-.18.69.69,0,0,1-.18-.49.72.72,0,0,1,.18-.51.62.62,0,0,1,.48-.19.6.6,0,0,1,.46.18.69.69,0,0,1,.18.49.72.72,0,0,1-.18.51A.63.63,0,0,1,5.75,15.45Zm0-1.12a.32.32,0,0,0-.25.12.53.53,0,0,0-.09.32.5.5,0,0,0,.09.31.34.34,0,0,0,.25.11A.28.28,0,0,0,6,15.08a.48.48,0,0,0,.09-.31A.51.51,0,0,0,6,14.45.26.26,0,0,0,5.76,14.33Z"/><path class="cls-1" d="M7.82,15.43h-.3L7,14.59a.64.64,0,0,1-.06-.11h0a1.28,1.28,0,0,1,0,.22v.73H6.63V14.1H7l.53.81.06.11h0a.87.87,0,0,1,0-.19V14.1h.28Z"/><path class="cls-1" d="M8.13,15.43V14.1H8.6c.47,0,.7.22.7.65a.64.64,0,0,1-.19.49.69.69,0,0,1-.51.19Zm.3-1.09v.85h.14a.4.4,0,0,0,.31-.12A.48.48,0,0,0,9,14.75a.41.41,0,0,0-.11-.3.43.43,0,0,0-.31-.11Z"/><path class="cls-1" d="M10.09,15.45a.64.64,0,0,1-.47-.18.69.69,0,0,1-.18-.49.72.72,0,0,1,.18-.51.66.66,0,0,1,.49-.19.62.62,0,0,1,.46.18.8.8,0,0,1,0,1A.61.61,0,0,1,10.09,15.45Zm0-1.12a.29.29,0,0,0-.25.12.53.53,0,0,0-.09.32.5.5,0,0,0,.09.31.3.3,0,0,0,.24.11.3.3,0,0,0,.25-.11.48.48,0,0,0,.09-.31.51.51,0,0,0-.09-.32A.29.29,0,0,0,10.1,14.33Z"/><path class="cls-1" d="M12.08,15.43h-.35l-.2-.34,0-.07,0-.06,0,0h-.13v.51H11V14.1h.48q.48,0,.48.36a.51.51,0,0,1,0,.13.3.3,0,0,1-.06.11l-.09.08-.13.05h0l.06,0,.05.05,0,.06.05.07Zm-.82-1.11v.37h.13a.25.25,0,0,0,.16,0,.2.2,0,0,0,.06-.14q0-.18-.21-.18Z"/></svg>